<?xml version="1.0" standalone="no"?>
<!DOCTYPE svg PUBLIC "-//W3C//DTD SVG 20010904//EN"
 "http://www.w3.org/TR/2001/REC-SVG-20010904/DTD/svg10.dtd">
<svg version="1.0" xmlns="http://www.w3.org/2000/svg"
 width="615.000000pt" height="403.000000pt" viewBox="0 0 615.000000 403.000000"
 preserveAspectRatio="xMidYMid meet">
<metadata>
Created by potrace 1.16, written by Peter Selinger 2001-2019
</metadata>
<g transform="translate(0.000000,403.000000) scale(0.100000,-0.100000)"
fill="#000000" stroke="none">
<path d="M4363 3039 c-24 -12 -54 -35 -68 -53 -14 -17 -30 -37 -36 -43 -5 -7
-17 -35 -26 -63 -13 -41 -14 -54 -3 -80 7 -18 20 -30 30 -30 10 0 28 -16 40
-35 12 -19 25 -35 30 -35 4 0 10 -9 13 -20 3 -11 12 -20 21 -20 21 0 31 -43
16 -70 -9 -18 -17 -21 -38 -15 -15 4 -85 9 -157 12 l-130 4 -32 37 c-25 29
-32 33 -33 18 0 -11 -5 -16 -14 -13 -7 3 -34 9 -60 12 -42 7 -46 5 -46 -13 0
-32 -17 -36 -50 -12 l-30 21 0 -48 c0 -46 13 -76 47 -111 7 -7 13 -18 13 -23
0 -5 7 -9 15 -9 8 0 15 -6 15 -13 0 -8 12 -20 26 -27 19 -11 24 -19 19 -37 -3
-15 -1 -23 7 -23 28 0 39 -37 27 -88 -14 -59 -33 -83 -36 -45 0 14 -4 51 -9
82 l-7 56 -13 -60 c-7 -33 -13 -95 -14 -137 -1 -204 -59 -475 -111 -517 -22
-18 -23 -21 -8 -36 18 -18 24 7 -79 -348 -37 -129 -54 -171 -71 -183 -20 -14
-21 -18 -8 -33 12 -14 5 -47 -58 -269 -40 -139 -75 -255 -77 -257 -10 -10
-209 -48 -293 -56 -114 -10 -160 -21 -210 -46 -38 -19 -44 -20 -120 -6 -66 11
-97 12 -177 2 -79 -10 -109 -10 -152 1 -75 18 -132 9 -166 -27 -28 -28 -73
-135 -110 -254 -14 -46 -29 -74 -52 -95 l-33 -29 913 -3 c501 -1 1322 -1 1823
0 l911 3 -79 80 c-43 44 -102 94 -131 110 -29 17 -82 49 -118 73 -54 35 -73
42 -114 42 -39 0 -50 4 -55 19 -12 37 -46 70 -105 100 -79 40 -148 59 -249 68
-82 8 -85 9 -92 37 -5 17 -4 37 2 48 6 11 9 61 8 111 -1 57 5 124 16 177 17
81 17 90 0 209 -9 69 -21 136 -27 150 -11 28 -5 107 18 263 8 53 11 103 8 111
-4 12 39 159 51 175 2 2 1 -53 -1 -121 -4 -114 -2 -125 16 -142 20 -18 20 -17
20 11 0 16 3 100 7 187 5 142 4 159 -12 177 -10 11 -15 23 -11 27 4 4 11 1 16
-7 7 -10 10 -11 10 -2 0 8 16 12 49 12 45 0 50 2 75 40 14 22 26 45 27 52 1
21 34 90 43 91 5 1 10 28 11 60 1 42 -3 64 -15 80 -29 37 -34 67 -14 82 17 12
17 14 1 38 -9 13 -25 60 -36 102 -15 61 -28 86 -58 118 -57 62 -65 66 -107 67
-28 0 -47 8 -73 30 -18 17 -41 30 -49 30 -9 0 -46 20 -83 45 -37 25 -76 45
-87 45 -15 0 -28 17 -52 68 -44 94 -96 175 -118 183 -35 14 -89 9 -131 -12z
m-254 -693 c52 -68 171 -151 205 -142 12 3 40 21 62 40 23 20 44 32 48 29 3
-3 6 1 6 10 0 21 36 23 43 3 6 -15 1 -49 -13 -81 -13 -32 -32 -174 -25 -186
12 -18 -5 -99 -20 -99 -21 0 -36 -35 -39 -88 -2 -26 -10 -69 -20 -95 -25 -74
-22 -95 18 -114 l34 -16 -5 -111 c-3 -61 -8 -127 -12 -146 -7 -33 -9 -28 -53
90 -40 108 -44 126 -31 134 13 7 11 12 -10 30 -19 15 -37 55 -66 141 -21 66
-58 172 -81 235 -55 152 -64 182 -61 203 1 9 -1 17 -6 16 -4 -1 -20 1 -35 5
-26 8 -28 12 -28 61 0 41 5 57 24 78 20 22 22 28 10 38 -8 6 -14 16 -14 21 0
21 27 -1 69 -56z m-58 -252 c4 -5 35 -82 68 -170 32 -87 73 -195 90 -239 17
-44 31 -87 31 -96 0 -8 4 -19 9 -25 5 -5 37 -83 70 -173 57 -154 61 -169 65
-271 3 -80 10 -123 26 -162 12 -29 26 -62 30 -73 11 -27 50 -191 50 -210 0 -9
8 -33 18 -54 17 -34 17 -42 5 -65 -7 -14 -19 -26 -26 -26 -7 0 -18 -9 -25 -20
-9 -15 -17 -18 -35 -11 -22 9 -50 2 -169 -38 -17 -6 -28 -6 -28 0 0 5 -9 18
-20 29 -24 24 -87 27 -128 6 -47 -23 -96 -27 -142 -11 -23 8 -58 15 -77 15
l-34 0 6 43 c3 23 12 114 20 201 7 87 18 162 23 165 15 10 21 40 10 43 -16 6
39 560 55 570 14 9 16 29 5 45 -5 6 -4 50 3 100 6 48 15 115 19 148 l7 60 2
-87 c1 -81 3 -88 21 -88 19 0 20 7 20 209 0 115 3 218 7 228 7 15 8 15 11 -7
2 -14 8 -30 13 -36z m-135 -371 c-8 -104 -21 -166 -35 -171 -17 -6 -13 -22 4
-22 13 0 15 -9 10 -47 -15 -130 -45 -457 -45 -487 0 -19 -7 -41 -15 -50 -18
-17 -20 -36 -4 -36 8 0 10 -15 6 -47 -4 -27 -11 -106 -17 -178 -15 -185 -14
-181 -61 -189 -28 -5 -46 -2 -65 11 -16 10 -54 18 -105 21 -43 3 -79 8 -79 12
0 16 131 466 140 482 5 10 14 39 20 65 12 54 74 271 126 438 18 61 42 143 54
184 11 41 21 74 22 75 2 1 12 6 23 13 11 6 22 12 24 12 2 1 1 -38 -3 -86z"/>
<path d="M0 180 l0 -180 341 0 c321 0 341 1 334 18 -4 9 -11 28 -15 42 -10 36
-49 112 -68 132 -8 10 -31 21 -51 24 -20 4 -43 12 -51 19 -8 6 -53 19 -100 29
-47 9 -114 26 -150 36 -71 21 -222 60 -233 60 -4 0 -7 -81 -7 -180z"/>
<path d="M1300 144 c-31 -13 -99 -75 -119 -109 l-20 -35 497 0 c493 0 497 1
472 20 -37 28 -130 48 -251 54 -108 6 -152 13 -294 46 -44 11 -89 19 -100 19
-11 -1 -54 2 -95 5 -41 3 -82 3 -90 0z"/>
</g>
</svg>
